<svg version="1.1" xmlns="http://www.w3.org/2000/svg" xmlns:xlink="http://www.w3.org/1999/xlink" width="26" height="26" viewBox="0,0,256,256"><g fill="none" fill-rule="nonzero" stroke="#e67e22" stroke-width="1.5" stroke-linecap="round" stroke-linejoin="miter" stroke-miterlimit="10" stroke-dasharray="" stroke-dashoffset="0" font-family="none" font-weight="none" font-size="none" text-anchor="none" style="mix-blend-mode: normal"><g transform="translate(-1.0432,-1.0432) scale(9.84615,9.84615)"><path d="M15.8386,13.1039h-2.7318M13.1068,13.1039h-2.7318M13.1068,13.1039v-2.7318M13.1068,13.1039v2.7317"></path><path d="M22.2119,13.106c0,4.2925 0,6.4389 -1.3335,7.7724c-1.3335,1.3335 -3.4799,1.3335 -7.7724,1.3335c-4.29263,0 -6.43893,0 -7.77246,-1.3335c-1.33354,-1.3335 -1.33354,-3.4799 -1.33354,-7.7724c0,-4.29263 0,-6.43893 1.33354,-7.77246c1.33353,-1.33354 3.47983,-1.33354 7.77246,-1.33354c4.2925,0 6.4389,0 7.7724,1.33354c0.8867,0.88668 1.1838,2.13269 1.2833,4.13004"></path></g></g></svg>