<svg version="1.1" xmlns="http://www.w3.org/2000/svg" xmlns:xlink="http://www.w3.org/1999/xlink" width="14" height="14" viewBox="0,0,256,256"><defs><clipPath id="clip-1"><rect x="0" y="0" width="14" height="14" id="clip0_3333_269" stroke="none" stroke-linecap="butt" stroke-linejoin="miter"></rect></clipPath></defs><g fill="none" fill-rule="nonzero" stroke="none" stroke-width="1" stroke-linecap="none" stroke-linejoin="none" stroke-miterlimit="10" stroke-dasharray="" stroke-dashoffset="0" font-family="none" font-weight="none" font-size="none" text-anchor="none" style="mix-blend-mode: normal"><g transform="scale(18.28571,18.28571)"><g clip-path="url(#clip-1)"><path d="M0.58301,0.58301h2.33333l1.56333,7.81083c0.05335,0.26856 0.19945,0.50981 0.41274,0.68151c0.21329,0.1717 0.48017,0.2629 0.75393,0.25766h5.66996c0.2738,0.00524 0.5407,-0.08596 0.754,-0.25766c0.2133,-0.1717 0.3594,-0.41295 0.4127,-0.68151l0.9333,-4.89417h-9.91663M5.83301,12.2497c0,0.3221 -0.26117,0.5833 -0.58334,0.5833c-0.32216,0 -0.58333,-0.2612 -0.58333,-0.5833c0,-0.3222 0.26117,-0.5834 0.58333,-0.5834c0.32217,0 0.58334,0.2612 0.58334,0.5834zM12.2497,12.2497c0,0.3221 -0.2612,0.5833 -0.5834,0.5833c-0.3221,0 -0.5833,-0.2612 -0.5833,-0.5833c0,-0.3222 0.2612,-0.5834 0.5833,-0.5834c0.3222,0 0.5834,0.2612 0.5834,0.5834z" stroke="#ffffff" stroke-linecap="round" stroke-linejoin="round"></path></g></g></g></svg>