<?xml version="1.0" encoding="UTF-8"?>
<svg xmlns="http://www.w3.org/2000/svg" xmlns:xlink="http://www.w3.org/1999/xlink" width="20px" height="20px" viewBox="0 0 20 20" version="1.1">
<g id="surface1">
<path style=" stroke:none;fill-rule:nonzero;fill:rgb(90.196079%,49.411765%,13.333334%);fill-opacity:1;" d="M 11.765625 16.492188 L 8.25 16.492188 L 8.453125 16.699219 L 8.453125 15.058594 L 8.25 15.265625 L 11.765625 15.265625 L 11.5625 15.058594 L 11.5625 16.699219 C 11.5625 16.960938 11.96875 16.960938 11.96875 16.699219 L 11.96875 15.058594 C 11.96875 14.945312 11.875 14.851562 11.765625 14.851562 L 8.25 14.851562 C 8.136719 14.851562 8.042969 14.945312 8.042969 15.058594 L 8.042969 16.699219 C 8.042969 16.8125 8.136719 16.90625 8.25 16.90625 L 11.765625 16.90625 C 12.03125 16.90625 12.03125 16.492188 11.765625 16.492188 Z M 11.765625 16.492188 "/>
<path style=" stroke:none;fill-rule:nonzero;fill:rgb(90.196079%,49.411765%,13.333334%);fill-opacity:1;" d="M 13.171875 16.492188 L 6.84375 16.492188 C 6.578125 16.492188 6.578125 16.90625 6.84375 16.90625 L 13.171875 16.90625 C 13.4375 16.90625 13.4375 16.492188 13.171875 16.492188 Z M 11.390625 14.851562 L 8.578125 14.851562 L 8.785156 15.058594 L 8.785156 10.84375 L 8.578125 11.050781 L 11.390625 11.050781 L 11.183594 10.84375 L 11.183594 15.058594 C 11.183594 15.320312 11.59375 15.320312 11.59375 15.058594 L 11.59375 10.84375 C 11.59375 10.734375 11.5 10.640625 11.390625 10.640625 L 8.578125 10.640625 C 8.46875 10.640625 8.375 10.734375 8.375 10.84375 L 8.375 15.058594 C 8.375 15.171875 8.46875 15.265625 8.578125 15.265625 L 11.390625 15.265625 C 11.652344 15.265625 11.652344 14.851562 11.390625 14.851562 Z M 16.660156 14.851562 L 13.851562 14.851562 L 14.054688 15.058594 L 14.054688 9.414062 L 13.851562 9.617188 L 16.660156 9.617188 L 16.453125 9.414062 L 16.453125 15.058594 C 16.453125 15.320312 16.867188 15.320312 16.867188 15.058594 L 16.867188 9.414062 C 16.867188 9.304688 16.773438 9.210938 16.660156 9.210938 L 13.851562 9.210938 C 13.738281 9.210938 13.644531 9.304688 13.644531 9.414062 L 13.644531 15.058594 C 13.644531 15.171875 13.738281 15.265625 13.851562 15.265625 L 16.660156 15.265625 C 16.921875 15.265625 16.921875 14.851562 16.660156 14.851562 Z M 3.449219 7.832031 L 4.3125 7.832031 C 4.539062 7.832031 4.746094 7.765625 4.910156 7.609375 C 5.125 7.40625 5.210938 7.070312 5.109375 6.789062 C 5.015625 6.507812 4.765625 6.296875 4.464844 6.253906 C 4.304688 6.234375 4.140625 6.261719 3.984375 6.242188 C 3.78125 6.21875 3.625 6.015625 3.65625 5.804688 C 3.683594 5.617188 3.847656 5.480469 4.039062 5.476562 C 4.34375 5.46875 4.648438 5.476562 4.945312 5.476562 C 5.210938 5.476562 5.210938 5.066406 4.945312 5.066406 L 4.085938 5.066406 C 3.859375 5.066406 3.648438 5.132812 3.484375 5.289062 C 3.269531 5.496094 3.1875 5.828125 3.285156 6.109375 C 3.382812 6.394531 3.632812 6.605469 3.929688 6.648438 C 4.089844 6.667969 4.253906 6.640625 4.414062 6.65625 C 4.617188 6.683594 4.769531 6.882812 4.742188 7.09375 C 4.710938 7.285156 4.546875 7.421875 4.355469 7.421875 C 4.054688 7.429688 3.75 7.421875 3.449219 7.421875 C 3.1875 7.421875 3.1875 7.832031 3.449219 7.832031 Z M 3.449219 7.832031 "/>
<path style=" stroke:none;fill-rule:nonzero;fill:rgb(90.196079%,49.411765%,13.333334%);fill-opacity:1;" d="M 4.40625 5.273438 L 4.40625 4.683594 C 4.40625 4.421875 3.992188 4.421875 3.992188 4.683594 L 3.992188 5.273438 C 3.992188 5.535156 4.40625 5.539062 4.40625 5.273438 Z M 4.40625 8.214844 L 4.40625 7.625 C 4.40625 7.363281 3.992188 7.363281 3.992188 7.625 L 3.992188 8.214844 C 3.992188 8.476562 4.40625 8.480469 4.40625 8.214844 Z M 3.460938 11.304688 C 4.101562 10.945312 4.738281 10.578125 5.378906 10.21875 C 6.398438 9.640625 7.414062 9.058594 8.4375 8.480469 C 8.667969 8.347656 8.898438 8.21875 9.132812 8.085938 L 8.925781 8.085938 C 9.695312 8.445312 10.46875 8.804688 11.242188 9.164062 C 11.347656 9.214844 11.453125 9.265625 11.5625 9.3125 C 11.65625 9.359375 11.734375 9.34375 11.8125 9.28125 C 12.328125 8.875 12.84375 8.460938 13.359375 8.054688 C 14.179688 7.40625 14.992188 6.757812 15.8125 6.113281 C 16 5.964844 16.1875 5.816406 16.371094 5.664062 C 16.457031 5.597656 16.445312 5.449219 16.371094 5.375 C 16.285156 5.289062 16.167969 5.308594 16.082031 5.375 C 15.566406 5.789062 15.050781 6.195312 14.535156 6.605469 C 13.71875 7.253906 12.902344 7.898438 12.085938 8.546875 C 11.898438 8.699219 11.710938 8.84375 11.523438 8.992188 C 11.605469 8.984375 11.691406 8.972656 11.773438 8.960938 C 11.15625 8.675781 10.539062 8.386719 9.921875 8.101562 C 9.664062 7.980469 9.410156 7.859375 9.152344 7.742188 C 9.0625 7.699219 8.980469 7.707031 8.898438 7.75 C 8.839844 7.78125 8.785156 7.816406 8.726562 7.847656 C 8.136719 8.183594 7.546875 8.519531 6.953125 8.855469 C 6.175781 9.296875 5.398438 9.742188 4.617188 10.183594 C 4.171875 10.4375 3.714844 10.679688 3.277344 10.945312 C 3.269531 10.949219 3.261719 10.953125 3.257812 10.957031 C 3.023438 11.082031 3.230469 11.4375 3.460938 11.308594 Z M 3.460938 11.304688 "/>
<path style=" stroke:none;fill-rule:nonzero;fill:rgb(90.196079%,49.411765%,13.333334%);fill-opacity:1;" d="M 15.027344 5.578125 C 15.429688 5.625 15.828125 5.671875 16.226562 5.726562 L 16.023438 5.519531 C 16 5.921875 15.976562 6.320312 15.953125 6.71875 C 15.941406 6.984375 16.351562 6.984375 16.367188 6.71875 C 16.386719 6.320312 16.410156 5.917969 16.433594 5.519531 C 16.4375 5.398438 16.332031 5.328125 16.226562 5.3125 C 15.828125 5.265625 15.429688 5.21875 15.027344 5.164062 C 14.917969 5.152344 14.824219 5.269531 14.824219 5.371094 C 14.824219 5.492188 14.917969 5.5625 15.027344 5.578125 Z M 6.164062 14.851562 L 3.355469 14.851562 L 3.5625 15.058594 L 3.5625 12.511719 L 3.355469 12.71875 L 6.164062 12.71875 L 5.960938 12.511719 L 5.960938 15.058594 C 5.960938 15.320312 6.371094 15.320312 6.371094 15.058594 L 6.371094 12.511719 C 6.371094 12.398438 6.277344 12.304688 6.164062 12.304688 L 3.355469 12.304688 C 3.242188 12.304688 3.148438 12.398438 3.148438 12.511719 L 3.148438 15.058594 C 3.148438 15.171875 3.242188 15.265625 3.355469 15.265625 L 6.164062 15.265625 C 6.429688 15.265625 6.433594 14.851562 6.164062 14.851562 Z M 6.164062 14.851562 "/>
<path style=" stroke:none;fill-rule:nonzero;fill:rgb(90.196079%,49.411765%,13.333334%);fill-opacity:1;" d="M 18.585938 14.628906 C 18.578125 14.882812 18.335938 14.851562 18.148438 14.851562 L 1.679688 14.851562 C 1.570312 14.851562 1.46875 14.820312 1.425781 14.703125 C 1.40625 14.65625 1.414062 14.585938 1.414062 14.527344 L 1.414062 3.84375 C 1.414062 3.800781 1.40625 3.742188 1.414062 3.703125 C 1.429688 3.5625 1.546875 3.503906 1.671875 3.503906 L 18.125 3.503906 C 18.300781 3.503906 18.511719 3.46875 18.570312 3.664062 C 18.585938 3.714844 18.582031 3.78125 18.582031 3.835938 L 18.582031 14.179688 C 18.582031 14.332031 18.582031 14.480469 18.582031 14.628906 C 18.582031 14.890625 18.992188 14.890625 18.992188 14.628906 L 18.992188 4.082031 C 18.992188 3.796875 19.027344 3.492188 18.796875 3.273438 C 18.597656 3.085938 18.363281 3.09375 18.117188 3.09375 L 2.089844 3.09375 C 1.945312 3.09375 1.796875 3.09375 1.648438 3.09375 C 1.296875 3.101562 1.015625 3.375 1.007812 3.730469 C 1.003906 3.773438 1.007812 3.820312 1.007812 3.867188 L 1.007812 14.570312 C 1.007812 14.789062 1.074219 14.992188 1.25 15.125 C 1.375 15.226562 1.53125 15.265625 1.6875 15.265625 L 18.351562 15.265625 C 18.707031 15.257812 18.984375 14.984375 18.996094 14.628906 C 19 14.367188 18.589844 14.367188 18.585938 14.628906 Z M 18.585938 14.628906 "/>
</g>
</svg>
