<?xml version="1.0" encoding="UTF-8"?>
<svg xmlns="http://www.w3.org/2000/svg" xmlns:xlink="http://www.w3.org/1999/xlink" width="20px" height="20px" viewBox="0 0 20 20" version="1.1">
<g id="surface1">
<path style=" stroke:none;fill-rule:nonzero;fill:rgb(90.196079%,49.411765%,13.333334%);fill-opacity:1;" d="M 14.375 16.710938 C 13.851562 16.710938 13.351562 16.589844 12.886719 16.351562 C 12.445312 16.125 12.054688 15.796875 11.757812 15.398438 C 11.636719 15.242188 11.53125 15.070312 11.441406 14.890625 C 11.21875 14.4375 11.101562 13.945312 11.101562 13.4375 C 11.101562 13.347656 11.105469 13.257812 11.113281 13.167969 C 11.117188 13.152344 11.117188 13.132812 11.121094 13.113281 C 11.121094 13.113281 11.121094 13.109375 11.121094 13.109375 C 11.199219 12.308594 11.574219 11.5625 12.171875 11.019531 C 12.777344 10.46875 13.558594 10.164062 14.375 10.164062 C 15.191406 10.164062 15.972656 10.46875 16.578125 11.019531 C 17.175781 11.5625 17.550781 12.308594 17.628906 13.109375 C 17.632812 13.128906 17.632812 13.148438 17.636719 13.167969 C 17.644531 13.257812 17.648438 13.347656 17.648438 13.4375 C 17.648438 13.945312 17.53125 14.4375 17.308594 14.890625 C 17.21875 15.070312 17.113281 15.242188 16.992188 15.398438 C 16.695312 15.796875 16.304688 16.125 15.863281 16.351562 C 15.398438 16.589844 14.898438 16.710938 14.375 16.710938 Z M 14.375 10.460938 C 12.835938 10.460938 11.5625 11.609375 11.410156 13.140625 C 11.410156 13.15625 11.40625 13.175781 11.40625 13.191406 C 11.398438 13.273438 11.398438 13.355469 11.398438 13.4375 C 11.398438 13.902344 11.5 14.347656 11.703125 14.757812 C 11.785156 14.921875 11.882812 15.078125 11.992188 15.222656 C 12.5625 15.980469 13.429688 16.414062 14.375 16.414062 C 15.320312 16.414062 16.1875 15.980469 16.757812 15.226562 C 16.867188 15.078125 16.964844 14.921875 17.046875 14.757812 C 17.25 14.347656 17.351562 13.902344 17.351562 13.4375 C 17.351562 13.355469 17.351562 13.273438 17.34375 13.191406 C 17.34375 13.171875 17.339844 13.15625 17.339844 13.140625 C 17.1875 11.609375 15.914062 10.460938 14.375 10.460938 Z M 14.375 10.460938 "/>
<path style=" stroke:none;fill-rule:nonzero;fill:rgb(90.196079%,49.411765%,13.333334%);fill-opacity:1;" d="M 14.0625 14.523438 C 14.023438 14.523438 13.988281 14.507812 13.960938 14.476562 L 13.023438 13.539062 L 13.230469 13.332031 L 14.0625 14.167969 L 15.835938 12.394531 L 16.042969 12.601562 L 14.167969 14.476562 C 14.136719 14.507812 14.101562 14.523438 14.0625 14.523438 Z M 16.25 5.460938 L 2.5 5.460938 C 2.417969 5.460938 2.351562 5.394531 2.351562 5.3125 L 2.351562 4.023438 C 2.351562 3.621094 2.683594 3.289062 3.085938 3.289062 L 15.664062 3.289062 C 16.066406 3.289062 16.398438 3.621094 16.398438 4.023438 L 16.398438 5.3125 C 16.398438 5.394531 16.332031 5.460938 16.25 5.460938 Z M 2.648438 5.164062 L 16.101562 5.164062 L 16.101562 4.023438 C 16.101562 3.78125 15.90625 3.585938 15.664062 3.585938 L 3.085938 3.585938 C 2.84375 3.585938 2.648438 3.78125 2.648438 4.023438 Z M 2.648438 5.164062 "/>
<path style=" stroke:none;fill-rule:nonzero;fill:rgb(90.196079%,49.411765%,13.333334%);fill-opacity:1;" d="M 11.875 15.460938 L 3.609375 15.460938 C 3.261719 15.460938 2.976562 15.175781 2.976562 14.828125 L 2.976562 5.3125 C 2.976562 5.230469 3.042969 5.164062 3.125 5.164062 L 15.625 5.164062 C 15.707031 5.164062 15.773438 5.230469 15.773438 5.3125 L 15.773438 10.574219 C 15.773438 10.621094 15.746094 10.667969 15.703125 10.695312 C 15.664062 10.722656 15.613281 10.726562 15.566406 10.707031 C 15.292969 10.585938 15.003906 10.507812 14.703125 10.476562 C 14.597656 10.464844 14.484375 10.460938 14.375 10.460938 C 12.835938 10.460938 11.5625 11.609375 11.410156 13.140625 C 11.410156 13.15625 11.40625 13.171875 11.40625 13.191406 C 11.398438 13.273438 11.398438 13.355469 11.398438 13.4375 C 11.398438 13.660156 11.421875 13.878906 11.46875 14.09375 C 11.507812 14.273438 11.570312 14.457031 11.644531 14.628906 C 11.664062 14.671875 11.683594 14.714844 11.703125 14.757812 C 11.785156 14.921875 11.882812 15.078125 11.992188 15.226562 C 12.027344 15.269531 12.03125 15.328125 12.007812 15.378906 C 11.980469 15.425781 11.929688 15.460938 11.875 15.460938 Z M 3.273438 5.460938 L 3.273438 14.828125 C 3.273438 15.015625 3.421875 15.164062 3.609375 15.164062 L 11.597656 15.164062 C 11.539062 15.078125 11.488281 14.984375 11.441406 14.890625 C 11.417969 14.839844 11.394531 14.792969 11.375 14.746094 C 11.292969 14.554688 11.226562 14.359375 11.183594 14.15625 C 11.128906 13.921875 11.105469 13.679688 11.105469 13.4375 C 11.105469 13.347656 11.105469 13.257812 11.113281 13.167969 C 11.117188 13.148438 11.117188 13.132812 11.121094 13.113281 C 11.199219 12.308594 11.574219 11.5625 12.171875 11.019531 C 12.777344 10.46875 13.558594 10.164062 14.375 10.164062 C 14.496094 10.164062 14.617188 10.171875 14.738281 10.1875 C 14.992188 10.214844 15.238281 10.269531 15.476562 10.355469 L 15.476562 5.460938 Z M 3.273438 5.460938 "/>
<path style=" stroke:none;fill-rule:nonzero;fill:rgb(90.196079%,49.411765%,13.333334%);fill-opacity:1;" d="M 11.09375 7.648438 L 7.65625 7.648438 C 7.316406 7.648438 7.039062 7.371094 7.039062 7.03125 C 7.039062 6.691406 7.316406 6.414062 7.65625 6.414062 L 11.09375 6.414062 C 11.433594 6.414062 11.710938 6.691406 11.710938 7.03125 C 11.710938 7.371094 11.433594 7.648438 11.09375 7.648438 Z M 7.65625 6.710938 C 7.476562 6.710938 7.335938 6.851562 7.335938 7.03125 C 7.335938 7.210938 7.476562 7.351562 7.65625 7.351562 L 11.09375 7.351562 C 11.273438 7.351562 11.414062 7.210938 11.414062 7.03125 C 11.414062 6.851562 11.273438 6.710938 11.09375 6.710938 Z M 7.65625 6.710938 "/>
<path style=" stroke:none;fill-rule:nonzero;fill:rgb(90.196079%,49.411765%,13.333334%);fill-opacity:1;" d="M 5 12.976562 L 7.1875 12.976562 L 7.1875 13.273438 L 5 13.273438 Z M 5 12.976562 "/>
</g>
</svg>
