<?xml version="1.0" encoding="UTF-8"?>
<svg xmlns="http://www.w3.org/2000/svg" xmlns:xlink="http://www.w3.org/1999/xlink" width="20px" height="20px" viewBox="0 0 20 20" version="1.1">
<g id="surface1">
<path style=" stroke:none;fill-rule:nonzero;fill:rgb(90.196079%,49.411765%,13.333334%);fill-opacity:1;" d="M 1.253906 1.875 C 1.082031 1.875 0.941406 1.738281 0.9375 1.5625 C 0.9375 1.390625 1.078125 1.25 1.25 1.25 L 1.253906 1.25 C 1.425781 1.25 1.566406 1.390625 1.566406 1.5625 C 1.566406 1.734375 1.425781 1.875 1.253906 1.875 Z M 2.191406 1.875 C 2.019531 1.875 1.878906 1.738281 1.875 1.5625 C 1.875 1.390625 2.015625 1.25 2.1875 1.25 L 2.191406 1.25 C 2.363281 1.25 2.503906 1.390625 2.503906 1.5625 C 2.503906 1.734375 2.363281 1.875 2.191406 1.875 Z M 3.128906 1.875 C 2.957031 1.875 2.816406 1.738281 2.8125 1.5625 C 2.8125 1.390625 2.953125 1.25 3.125 1.25 L 3.128906 1.25 C 3.300781 1.25 3.441406 1.390625 3.441406 1.5625 C 3.441406 1.734375 3.300781 1.875 3.128906 1.875 Z M 3.128906 1.875 "/>
<path style=" stroke:none;fill-rule:nonzero;fill:rgb(90.196079%,49.411765%,13.333334%);fill-opacity:1;" d="M 19.691406 19.375 L 0.316406 19.375 C 0.230469 19.375 0.152344 19.34375 0.09375 19.285156 C 0.0351562 19.226562 0.00390625 19.144531 0.00390625 19.0625 L 0.00390625 2.1875 C 0.00390625 2.105469 0.0351562 2.023438 0.09375 1.964844 C 0.152344 1.90625 0.230469 1.875 0.316406 1.875 L 19.691406 1.875 C 19.773438 1.875 19.851562 1.90625 19.910156 1.964844 C 19.96875 2.023438 20.003906 2.105469 20.003906 2.1875 L 20.003906 19.0625 C 20.003906 19.144531 19.96875 19.226562 19.910156 19.285156 C 19.851562 19.34375 19.773438 19.375 19.691406 19.375 Z M 0.628906 18.75 L 19.378906 18.75 L 19.378906 2.5 L 0.628906 2.5 Z M 0.628906 18.75 "/>
<path style=" stroke:none;fill-rule:nonzero;fill:rgb(90.196079%,49.411765%,13.333334%);fill-opacity:1;" d="M 0.308594 1.875 C 0.226562 1.875 0.148438 1.84375 0.0898438 1.785156 C 0.03125 1.726562 -0.00390625 1.644531 -0.00390625 1.5625 C -0.00390625 1.046875 0.417969 0.625 0.933594 0.625 C 1.105469 0.625 1.246094 0.765625 1.246094 0.9375 C 1.246094 1.109375 1.105469 1.25 0.933594 1.25 C 0.761719 1.25 0.621094 1.390625 0.621094 1.5625 C 0.621094 1.644531 0.589844 1.726562 0.53125 1.785156 C 0.472656 1.84375 0.394531 1.875 0.308594 1.875 Z M 0.308594 1.875 "/>
<path style=" stroke:none;fill-rule:nonzero;fill:rgb(90.196079%,49.411765%,13.333334%);fill-opacity:1;" d="M 0.308594 2.5 C 0.226562 2.5 0.148438 2.46875 0.0898438 2.410156 C 0.03125 2.351562 -0.00390625 2.269531 -0.00390625 2.1875 L -0.00390625 1.5625 C -0.00390625 1.390625 0.136719 1.25 0.308594 1.25 C 0.480469 1.25 0.621094 1.390625 0.621094 1.5625 L 0.621094 2.1875 C 0.621094 2.269531 0.589844 2.351562 0.53125 2.410156 C 0.472656 2.46875 0.394531 2.5 0.308594 2.5 Z M 19.683594 1.875 C 19.601562 1.875 19.523438 1.84375 19.464844 1.785156 C 19.40625 1.726562 19.371094 1.644531 19.371094 1.5625 C 19.371094 1.390625 19.230469 1.25 19.058594 1.25 C 18.886719 1.25 18.746094 1.109375 18.746094 0.9375 C 18.746094 0.765625 18.886719 0.625 19.058594 0.625 C 19.578125 0.625 19.996094 1.046875 19.996094 1.5625 C 19.996094 1.644531 19.964844 1.726562 19.90625 1.785156 C 19.847656 1.84375 19.769531 1.875 19.683594 1.875 Z M 19.683594 1.875 "/>
<path style=" stroke:none;fill-rule:nonzero;fill:rgb(90.196079%,49.411765%,13.333334%);fill-opacity:1;" d="M 19.683594 2.5 C 19.601562 2.5 19.523438 2.46875 19.464844 2.410156 C 19.40625 2.351562 19.371094 2.269531 19.371094 2.1875 L 19.371094 1.5625 C 19.371094 1.390625 19.511719 1.25 19.683594 1.25 C 19.855469 1.25 19.996094 1.390625 19.996094 1.5625 L 19.996094 2.1875 C 19.996094 2.269531 19.964844 2.351562 19.90625 2.410156 C 19.847656 2.46875 19.769531 2.5 19.683594 2.5 Z M 19.058594 1.25 L 0.933594 1.25 C 0.761719 1.25 0.621094 1.109375 0.621094 0.9375 C 0.621094 0.765625 0.761719 0.625 0.933594 0.625 L 19.058594 0.625 C 19.230469 0.625 19.371094 0.765625 19.371094 0.9375 C 19.371094 1.109375 19.230469 1.25 19.058594 1.25 Z M 17.808594 11.25 L 2.183594 11.25 C 2.101562 11.25 2.023438 11.21875 1.964844 11.160156 C 1.90625 11.101562 1.871094 11.023438 1.871094 10.9375 L 1.871094 9.6875 C 1.871094 9.605469 1.90625 9.527344 1.964844 9.46875 C 2.023438 9.410156 2.101562 9.375 2.183594 9.375 L 17.808594 9.375 C 17.894531 9.375 17.972656 9.410156 18.03125 9.46875 C 18.089844 9.527344 18.121094 9.605469 18.121094 9.6875 L 18.121094 10.9375 C 18.121094 11.023438 18.089844 11.101562 18.03125 11.160156 C 17.972656 11.21875 17.894531 11.25 17.808594 11.25 Z M 2.496094 10.625 L 17.496094 10.625 L 17.496094 10 L 2.496094 10 Z M 2.496094 10.625 "/>
<path style=" stroke:none;fill-rule:nonzero;fill:rgb(90.196079%,49.411765%,13.333334%);fill-opacity:1;" d="M 16.558594 11.25 C 16.476562 11.25 16.398438 11.21875 16.339844 11.160156 C 16.28125 11.101562 16.246094 11.023438 16.246094 10.9375 L 16.246094 9.6875 C 16.246094 9.515625 16.386719 9.375 16.558594 9.375 C 16.730469 9.375 16.871094 9.515625 16.871094 9.6875 L 16.871094 10.9375 C 16.871094 11.023438 16.839844 11.101562 16.78125 11.160156 C 16.722656 11.21875 16.644531 11.25 16.558594 11.25 Z M 4.683594 12.8125 L 2.496094 12.8125 C 2.324219 12.8125 2.183594 12.671875 2.183594 12.5 C 2.183594 12.328125 2.324219 12.1875 2.496094 12.1875 L 4.683594 12.1875 C 4.855469 12.1875 4.996094 12.328125 4.996094 12.5 C 4.996094 12.671875 4.855469 12.8125 4.683594 12.8125 Z M 12.804688 12.8125 L 7.179688 12.8125 C 7.007812 12.8125 6.867188 12.671875 6.867188 12.5 C 6.867188 12.328125 7.007812 12.1875 7.179688 12.1875 L 12.804688 12.1875 C 12.976562 12.1875 13.117188 12.328125 13.117188 12.5 C 13.117188 12.671875 12.976562 12.8125 12.804688 12.8125 Z M 17.496094 12.8125 L 14.996094 12.8125 C 14.824219 12.8125 14.683594 12.671875 14.683594 12.5 C 14.683594 12.328125 14.824219 12.1875 14.996094 12.1875 L 17.496094 12.1875 C 17.667969 12.1875 17.808594 12.328125 17.808594 12.5 C 17.808594 12.671875 17.667969 12.8125 17.496094 12.8125 Z M 17.808594 14.0625 L 2.183594 14.0625 C 2.011719 14.0625 1.871094 13.921875 1.871094 13.75 C 1.871094 13.578125 2.011719 13.4375 2.183594 13.4375 L 17.808594 13.4375 C 17.980469 13.4375 18.121094 13.578125 18.121094 13.75 C 18.121094 13.921875 17.980469 14.0625 17.808594 14.0625 Z M 4.683594 15.3125 L 2.496094 15.3125 C 2.324219 15.3125 2.183594 15.171875 2.183594 15 C 2.183594 14.828125 2.324219 14.6875 2.496094 14.6875 L 4.683594 14.6875 C 4.855469 14.6875 4.996094 14.828125 4.996094 15 C 4.996094 15.171875 4.855469 15.3125 4.683594 15.3125 Z M 12.804688 15.3125 L 7.179688 15.3125 C 7.007812 15.3125 6.867188 15.171875 6.867188 15 C 6.867188 14.828125 7.007812 14.6875 7.179688 14.6875 L 12.804688 14.6875 C 12.976562 14.6875 13.117188 14.828125 13.117188 15 C 13.117188 15.171875 12.976562 15.3125 12.804688 15.3125 Z M 17.496094 15.3125 L 14.996094 15.3125 C 14.824219 15.3125 14.683594 15.171875 14.683594 15 C 14.683594 14.828125 14.824219 14.6875 14.996094 14.6875 L 17.496094 14.6875 C 17.667969 14.6875 17.808594 14.828125 17.808594 15 C 17.808594 15.171875 17.667969 15.3125 17.496094 15.3125 Z M 17.808594 16.5625 L 2.183594 16.5625 C 2.011719 16.5625 1.871094 16.421875 1.871094 16.25 C 1.871094 16.078125 2.011719 15.9375 2.183594 15.9375 L 17.808594 15.9375 C 17.980469 15.9375 18.121094 16.078125 18.121094 16.25 C 18.121094 16.421875 17.980469 16.5625 17.808594 16.5625 Z M 4.683594 17.8125 L 2.496094 17.8125 C 2.324219 17.8125 2.183594 17.671875 2.183594 17.5 C 2.183594 17.328125 2.324219 17.1875 2.496094 17.1875 L 4.683594 17.1875 C 4.855469 17.1875 4.996094 17.328125 4.996094 17.5 C 4.996094 17.671875 4.855469 17.8125 4.683594 17.8125 Z M 12.804688 17.8125 L 7.179688 17.8125 C 7.007812 17.8125 6.867188 17.671875 6.867188 17.5 C 6.867188 17.328125 7.007812 17.1875 7.179688 17.1875 L 12.804688 17.1875 C 12.976562 17.1875 13.117188 17.328125 13.117188 17.5 C 13.117188 17.671875 12.976562 17.8125 12.804688 17.8125 Z M 17.496094 17.8125 L 14.996094 17.8125 C 14.824219 17.8125 14.683594 17.671875 14.683594 17.5 C 14.683594 17.328125 14.824219 17.1875 14.996094 17.1875 L 17.496094 17.1875 C 17.667969 17.1875 17.808594 17.328125 17.808594 17.5 C 17.808594 17.671875 17.667969 17.8125 17.496094 17.8125 Z M 13.433594 8.75 C 13.375 8.75 13.3125 8.734375 13.261719 8.699219 C 13.179688 8.644531 11.246094 7.335938 11.246094 5.625 C 11.246094 4.417969 12.226562 3.4375 13.433594 3.4375 C 14.644531 3.4375 15.621094 4.417969 15.621094 5.625 C 15.621094 7.335938 13.691406 8.644531 13.609375 8.699219 C 13.558594 8.734375 13.496094 8.75 13.433594 8.75 Z M 13.433594 4.0625 C 12.574219 4.0625 11.875 4.761719 11.871094 5.625 C 11.871094 6.738281 12.996094 7.714844 13.433594 8.050781 C 13.875 7.710938 14.996094 6.734375 14.996094 5.625 C 14.996094 4.761719 14.296875 4.0625 13.433594 4.0625 Z M 13.433594 4.0625 "/>
<path style=" stroke:none;fill-rule:nonzero;fill:rgb(90.196079%,49.411765%,13.333334%);fill-opacity:1;" d="M 13.4375 6.5625 C 12.917969 6.5625 12.5 6.140625 12.5 5.625 C 12.5 5.105469 12.917969 4.6875 13.4375 4.6875 C 13.953125 4.6875 14.375 5.105469 14.375 5.625 C 14.375 6.140625 13.953125 6.5625 13.4375 6.5625 Z M 13.4375 5.3125 C 13.265625 5.3125 13.125 5.453125 13.125 5.625 C 13.125 5.796875 13.265625 5.9375 13.4375 5.9375 C 13.609375 5.9375 13.75 5.796875 13.75 5.625 C 13.75 5.453125 13.609375 5.3125 13.4375 5.3125 Z M 10.003906 8.75 L 5.003906 8.75 C 4.917969 8.75 4.839844 8.71875 4.78125 8.660156 C 4.722656 8.601562 4.691406 8.519531 4.691406 8.4375 L 4.691406 4.6875 C 4.691406 4.605469 4.722656 4.527344 4.78125 4.46875 C 4.839844 4.410156 4.917969 4.375 5.003906 4.375 L 10.003906 4.375 C 10.085938 4.375 10.164062 4.410156 10.222656 4.46875 C 10.28125 4.527344 10.316406 4.605469 10.316406 4.6875 L 10.316406 8.4375 C 10.316406 8.519531 10.28125 8.601562 10.222656 8.660156 C 10.164062 8.71875 10.085938 8.75 10.003906 8.75 Z M 5.316406 8.125 L 9.691406 8.125 L 9.691406 5 L 5.316406 5 Z M 5.316406 8.125 "/>
<path style=" stroke:none;fill-rule:nonzero;fill:rgb(90.196079%,49.411765%,13.333334%);fill-opacity:1;" d="M 9.0625 8.746094 L 5.941406 8.746094 C 5.855469 8.746094 5.777344 8.714844 5.71875 8.65625 C 5.660156 8.597656 5.628906 8.519531 5.628906 8.433594 L 5.628906 5.625 C 5.628906 5.542969 5.660156 5.464844 5.71875 5.40625 C 5.777344 5.347656 5.855469 5.3125 5.941406 5.3125 L 9.0625 5.3125 C 9.144531 5.3125 9.222656 5.347656 9.28125 5.40625 C 9.339844 5.464844 9.375 5.542969 9.375 5.625 L 9.375 8.433594 C 9.375 8.519531 9.339844 8.597656 9.28125 8.65625 C 9.222656 8.714844 9.144531 8.746094 9.0625 8.746094 Z M 6.253906 8.121094 L 8.75 8.121094 L 8.75 5.9375 L 6.253906 5.9375 Z M 6.253906 8.121094 "/>
<path style=" stroke:none;fill-rule:nonzero;fill:rgb(90.196079%,49.411765%,13.333334%);fill-opacity:1;" d="M 9.066406 7.8125 L 5.941406 7.8125 C 5.765625 7.8125 5.628906 7.671875 5.628906 7.5 C 5.628906 7.328125 5.765625 7.1875 5.941406 7.1875 L 9.066406 7.1875 C 9.238281 7.1875 9.378906 7.328125 9.378906 7.5 C 9.378906 7.671875 9.238281 7.8125 9.066406 7.8125 Z M 9.066406 6.875 L 5.941406 6.875 C 5.765625 6.875 5.628906 6.734375 5.628906 6.5625 C 5.628906 6.390625 5.765625 6.25 5.941406 6.25 L 9.066406 6.25 C 9.238281 6.25 9.378906 6.390625 9.378906 6.5625 C 9.378906 6.734375 9.238281 6.875 9.066406 6.875 Z M 10.316406 5 L 4.691406 5 C 4.605469 5 4.527344 4.96875 4.46875 4.910156 C 4.410156 4.851562 4.378906 4.769531 4.378906 4.6875 L 4.378906 3.75 C 4.378906 3.667969 4.410156 3.589844 4.46875 3.53125 C 4.527344 3.472656 4.605469 3.4375 4.691406 3.4375 L 10.316406 3.4375 C 10.398438 3.4375 10.476562 3.472656 10.535156 3.53125 C 10.59375 3.589844 10.628906 3.667969 10.628906 3.75 L 10.628906 4.6875 C 10.628906 4.769531 10.59375 4.851562 10.535156 4.910156 C 10.476562 4.96875 10.398438 5 10.316406 5 Z M 5.003906 4.375 L 10.003906 4.375 L 10.003906 4.0625 L 5.003906 4.0625 Z M 10.316406 8.746094 L 4.691406 8.746094 C 4.515625 8.746094 4.378906 8.609375 4.378906 8.433594 C 4.378906 8.261719 4.515625 8.121094 4.691406 8.121094 L 10.316406 8.121094 C 10.488281 8.121094 10.628906 8.261719 10.628906 8.433594 C 10.628906 8.609375 10.488281 8.746094 10.316406 8.746094 Z M 10.316406 8.746094 "/>
</g>
</svg>
