<svg version="1.1" xmlns="http://www.w3.org/2000/svg" xmlns:xlink="http://www.w3.org/1999/xlink" width="26" height="26" viewBox="0,0,256,256"><g fill="#e67e22" fill-rule="nonzero" stroke="none" stroke-width="1" stroke-linecap="butt" stroke-linejoin="miter" stroke-miterlimit="10" stroke-dasharray="" stroke-dashoffset="0" font-family="none" font-weight="none" font-size="none" text-anchor="none" style="mix-blend-mode: normal"><g transform="translate(2.46154,2.33255) scale(9.84615,9.84615)"><path d="M22.4926,6.13745c0.005,-0.05926 0.0074,-0.1187 0.0074,-0.17798c0,-1.63186 -1.3276,-2.95947 -2.9595,-2.95947c-0.0335,0 -0.0661,0.00131 -0.142,0.00464l-13.32312,-0.00094c-0.03851,-0.00185 -0.0776,-0.0037 -0.11813,-0.0037c-1.62929,0 -2.95468,1.325 -2.95468,2.9556l0.00409,0.23851h-0.00666l0.00852,12.95759l-0.00353,0.4439c0,1.6122 1.31149,2.9237 2.92353,2.9237c0.03633,0 0.15261,-0.0052 0.15463,-0.0052l13.26165,0.0019c0.065,0.0077 0.1354,0.0102 0.208,0.0102c0.78,0 1.5139,-0.3039 2.0663,-0.856c0.5526,-0.5518 0.8568,-1.2846 0.8568,-2.0644l-0.0031,-0.2617h0.02l-0.0002,-13.20668zM5.99205,21.2478l-0.05629,-0.0045c-0.92611,0 -1.65835,-0.7592 -1.66686,-1.7272v-10.66696h16.9556l0.01,10.56656l-0.0193,0.0624c-0.0116,0.04 -0.0174,0.078 -0.0174,0.1126c0,0.8795 -0.6872,1.6065 -1.5648,1.6552l-0.2356,0.0136v-0.0115zM21.2243,7.58062h-16.95412l-0.00816,-1.43594l0.01851,-0.06368c0.01132,-0.03964 0.01703,-0.07906 0.01703,-0.11428c0,-0.91983 0.7563,-1.66964 1.70262,-1.67278l0.0098,-0.00148l13.46292,0.0004l0.058,0.00442c0.9218,0 1.6718,0.75002 1.6718,1.67188c0,0.02888 0.0043,0.05852 0.0143,0.0987l0.0072,0.01926v1.4935z"></path><path d="M16.8009,11.8711c-0.1717,0 -0.3335,0.067 -0.4556,0.1891l-4.8659,4.8661l-2.32431,-2.3241c-0.12074,-0.122 -0.28203,-0.1892 -0.4539,-0.1892c-0.17188,0 -0.33371,0.067 -0.45556,0.1887c-0.12148,0.1201 -0.18891,0.2809 -0.18948,0.4527c-0.00037,0.1723 0.06686,0.3345 0.18926,0.4573l2.77779,2.778c0.1214,0.1211 0.2834,0.1878 0.4562,0.1878c0.1725,0 0.3346,-0.0667 0.4559,-0.188l5.3193,-5.3193c0.1215,-0.12 0.1889,-0.2806 0.1895,-0.4526c0.0003,-0.173 -0.0671,-0.3356 -0.1891,-0.4571c-0.1209,-0.1222 -0.2822,-0.1894 -0.4541,-0.1894z"></path></g></g></svg>