<svg version="1.1" xmlns="http://www.w3.org/2000/svg" xmlns:xlink="http://www.w3.org/1999/xlink" width="18" height="17" viewBox="0,0,256,241.76563"><g fill="#e67e22" fill-rule="nonzero" stroke="none" stroke-width="1" stroke-linecap="butt" stroke-linejoin="miter" stroke-miterlimit="10" stroke-dasharray="" stroke-dashoffset="0" font-family="none" font-weight="none" font-size="none" text-anchor="none" style="mix-blend-mode: normal"><g transform="translate(0.00012,3.39466) scale(14.22222,14.22222)"><path d="M8.04894,0.92705c0.29936,-0.92131 1.60276,-0.92131 1.90212,0l1.29404,3.98278c0.1339,0.41202 0.5179,0.69098 0.9511,0.69098h4.1877c0.9688,0 1.3715,1.23962 0.5878,1.80902l-3.3879,2.46149c-0.3505,0.25468 -0.4972,0.70598 -0.3633,1.11808l1.2941,3.9827c0.2993,0.9213 -0.7551,1.6875 -1.5389,1.1181l-3.38792,-2.4615c-0.35048,-0.2547 -0.82508,-0.2547 -1.17557,0l-3.38795,2.4615c-0.78372,0.5694 -1.83819,-0.1968 -1.53884,-1.1181l1.29408,-3.9827c0.13388,-0.4121 -0.01278,-0.8634 -0.36327,-1.11808l-3.38796,-2.46149c-0.78371,-0.5694 -0.38093,-1.80902 0.58779,-1.80902h4.18774c0.43323,0 0.81719,-0.27896 0.95106,-0.69098z"></path></g></g></svg>