<svg version="1.1" xmlns="http://www.w3.org/2000/svg" xmlns:xlink="http://www.w3.org/1999/xlink" width="22" height="20" viewBox="0,0,256,232.71875"><g fill="none" fill-rule="nonzero" stroke="#e67e22" stroke-width="1.6" stroke-linecap="none" stroke-linejoin="miter" stroke-miterlimit="10" stroke-dasharray="" stroke-dashoffset="0" font-family="none" font-weight="none" font-size="none" text-anchor="none" style="mix-blend-mode: normal"><g transform="translate(1.21215,4.35937) scale(11.63636,11.63636)"><path d="M7.72852,15.375c0.86294,0 1.5625,0.6436 1.5625,1.4375c0,0.7939 -0.69956,1.4375 -1.5625,1.4375c-0.86295,0 -1.5625,-0.6436 -1.5625,-1.4375c0,-0.7939 0.69955,-1.4375 1.5625,-1.4375z" stroke-linecap="butt"></path><path d="M16.1035,15.375c0.8629,0 1.5625,0.6435 1.5625,1.4375c0,0.7939 -0.6996,1.4375 -1.5625,1.4375c-0.8629,0 -1.5625,-0.6436 -1.5625,-1.4375c0,-0.794 0.6996,-1.4375 1.5625,-1.4375z" stroke-linecap="butt"></path><path d="M1,1l0.27209,0.08801c1.35583,0.43855 2.03374,0.65782 2.42149,1.17985c0.38775,0.52203 0.38775,1.21543 0.38775,2.60223v2.60824c0,2.81907 0.06588,3.74927 0.96838,4.62507c0.9025,0.8758 2.35505,0.8758 5.26019,0.8758h1.1068M15.8337,12.9792c1.6261,0 2.4391,0 3.0138,-0.4309c0.5747,-0.4309 0.7389,-1.1634 1.0671,-2.62861l0.5206,-2.32372c0.3616,-1.6666 0.5423,-2.49989 0.0799,-3.05294c-0.4624,-0.55303 -2.0424,-0.55303 -3.7976,-0.55303h-6.318M4.08133,3.99h2.127" stroke-linecap="round"></path></g></g></svg>